<svg width="12" height="12" viewBox="0 0 12 12" fill="none" xmlns="http://www.w3.org/2000/svg">
<path d="M10.7438 2.28748L2.25847 10.7728C1.96856 11.0627 1.48772 11.0627 1.19781 10.7728C0.907897 10.4828 0.907897 10.002 1.19781 9.7121L9.68309 1.22682C9.97301 0.936905 10.4538 0.936905 10.7438 1.22682C11.0337 1.51673 11.0337 1.99757 10.7438 2.28748Z" fill="#253017"/>
<path d="M10.7438 10.7728C10.4538 11.0627 9.97301 11.0627 9.68309 10.7728L1.19781 2.28753C0.907897 1.99762 0.907897 1.51679 1.19781 1.22687C1.48772 0.936958 1.96856 0.936958 2.25847 1.22687L10.7438 9.71215C11.0337 10.0021 11.0337 10.4829 10.7438 10.7728Z" fill="#253017"/>
</svg>
