<svg width="12" height="12" viewBox="0 0 12 12"  xmlns="http://www.w3.org/2000/svg">
<path d="M10.7438 2.28748L2.25847 10.7728C1.96856 11.0627 1.48772 11.0627 1.19781 10.7728C0.907897 10.4828 0.907897 10.002 1.19781 9.7121L9.68309 1.22682C9.97301 0.936905 10.4538 0.936905 10.7438 1.22682C11.0337 1.51673 11.0337 1.99757 10.7438 2.28748Z" fill="currentColor"/>
<path d="M10.7438 10.7727C10.4538 11.0626 9.97301 11.0626 9.68309 10.7727L1.19781 2.28741C0.907897 1.9975 0.907897 1.51666 1.19781 1.22675C1.48772 0.936836 1.96856 0.936836 2.25847 1.22675L10.7438 9.71203C11.0337 10.0019 11.0337 10.4828 10.7438 10.7727Z" fill="currentColor"/>
</svg>
