<svg width="20" height="20" viewBox="0 0 20 20" fill="none" xmlns="http://www.w3.org/2000/svg">
<path d="M7.2079 8.83963C5.79429 8.83963 4.65039 7.69572 4.65039 6.28212C4.65039 4.86851 5.79429 3.72461 7.2079 3.72461C8.6215 3.72461 9.76541 4.86851 9.76541 6.28212C9.76541 7.69572 8.6215 8.83963 7.2079 8.83963ZM7.2079 5.11961C6.5662 5.11961 6.0454 5.64042 6.0454 6.28212C6.0454 6.92382 6.5662 7.44462 7.2079 7.44462C7.8496 7.44462 8.3704 6.92382 8.3704 6.28212C8.3704 5.64042 7.8496 5.11961 7.2079 5.11961Z" fill="#253017"/>
<path d="M12.7875 20.0009H7.20752C2.15761 20.0009 0 17.8433 0 12.7934V7.21338C0 2.16347 2.15761 0.00585938 7.20752 0.00585938H10.9275C11.3088 0.00585938 11.625 0.32206 11.625 0.703362C11.625 1.08466 11.3088 1.40086 10.9275 1.40086H7.20752C2.92021 1.40086 1.395 2.92607 1.395 7.21338V12.7934C1.395 17.0807 2.92021 18.6059 7.20752 18.6059H12.7875C17.0749 18.6059 18.6001 17.0807 18.6001 12.7934V8.14338C18.6001 7.76208 18.9163 7.44588 19.2976 7.44588C19.6789 7.44588 19.9951 7.76208 19.9951 8.14338V12.7934C19.9951 17.8433 17.8375 20.0009 12.7875 20.0009Z" fill="#253017"/>
<path d="M13.4096 7.90996C13.0469 7.90996 12.7121 7.77976 12.4703 7.52866C12.182 7.24036 12.0425 6.81256 12.1076 6.37546L12.2936 5.08275C12.3401 4.75725 12.5354 4.35735 12.7772 4.12485L16.1531 0.748941C17.5016 -0.599564 18.6734 0.172339 19.25 0.748941C19.7987 1.29764 20.0498 1.87424 19.994 2.46945C19.9475 2.94375 19.7057 3.39945 19.25 3.84585L15.8741 7.22176C15.6416 7.45426 15.2417 7.64956 14.9162 7.70536L13.6235 7.89136C13.5491 7.90996 13.4747 7.90996 13.4096 7.90996ZM17.1296 1.74404L13.7537 5.11995C13.7258 5.14785 13.6793 5.25015 13.67 5.29665L13.4933 6.50566L14.7116 6.33826C14.7488 6.32896 14.8511 6.28246 14.8883 6.24526L18.2642 2.86935C18.4688 2.66475 18.5897 2.47875 18.599 2.33925C18.6176 2.14394 18.4223 1.90214 18.2642 1.74404C17.7806 1.26044 17.5574 1.31624 17.1296 1.74404Z" fill="#253017"/>
<path d="M18.275 4.54281C18.2099 4.54281 18.1448 4.53351 18.089 4.51491C16.8428 4.16151 15.8477 3.16641 15.4943 1.9202C15.392 1.5482 15.6059 1.1669 15.9779 1.0646C16.3499 0.962299 16.7312 1.1762 16.8335 1.5482C17.0567 2.3294 17.6798 2.9618 18.4703 3.18501C18.8423 3.28731 19.0562 3.67791 18.9539 4.04061C18.8516 4.33821 18.5726 4.54281 18.275 4.54281Z" fill="#253017"/>
<path d="M1.32012 17.1636C1.09692 17.1636 0.873721 17.052 0.743521 16.8567C0.52962 16.5405 0.613321 16.1034 0.929522 15.8895L5.51444 12.8112C6.51884 12.1416 7.90454 12.216 8.81594 12.9879L9.12285 13.2576C9.58785 13.6575 10.3783 13.6575 10.8341 13.2576L14.7029 9.93746C15.6887 9.09116 17.2418 9.09116 18.2369 9.93746L19.7528 11.2395C20.0411 11.4906 20.0783 11.9277 19.8272 12.2253C19.5761 12.5136 19.139 12.5508 18.8414 12.2997L17.3255 10.9977C16.8605 10.5978 16.07 10.5978 15.6143 10.9977L11.7455 14.3178C10.7597 15.1641 9.20655 15.1641 8.21144 14.3178L7.90454 14.0481C7.47674 13.6854 6.76994 13.6482 6.29564 13.9737L1.72002 17.052C1.58982 17.1264 1.45032 17.1636 1.32012 17.1636Z" fill="#253017"/>
</svg>
