<svg width="22" height="22" viewBox="0 0 22 22" fill="none" xmlns="http://www.w3.org/2000/svg">
<path d="M5.09 13.999C4.70066 13.119 4.49969 12.1673 4.5 11.205C4.5 7.50002 7.41 4.49902 11 4.49902C14.59 4.49902 17.5 7.50102 17.5 11.205C17.5003 12.1673 17.2993 13.119 16.91 13.999M11 0.999023V1.99902M21 10.999H20M2 10.999H1M18.07 3.92802L17.363 4.63502M4.637 4.63602L3.93 3.92902M13.517 18.306C14.527 17.979 14.933 17.054 15.047 16.124C15.081 15.846 14.852 15.615 14.572 15.615H7.477C7.40862 15.6139 7.3408 15.6274 7.278 15.6545C7.21521 15.6815 7.15888 15.7217 7.11275 15.7721C7.06662 15.8226 7.03173 15.8823 7.0104 15.9473C6.98906 16.0123 6.98177 16.081 6.989 16.149C7.101 17.077 7.383 17.755 8.453 18.305M13.517 18.306L8.453 18.305M13.517 18.306C13.396 20.251 12.834 21.021 11.007 20.999C9.053 21.035 8.603 20.082 8.453 18.305" stroke="#253017" stroke-width="1.5" stroke-linecap="round" stroke-linejoin="round"/>
</svg>
